<svg width="24" height="24" viewBox="0 0 24 24" fill="none" xmlns="http://www.w3.org/2000/svg">
<rect width="24" height="24" fill="white"/>
<path d="M11.5 12C10.875 12 10.293 11.8828 9.75391 11.6484C9.21484 11.4141 8.73828 11.0938 8.32422 10.6875C7.91016 10.2812 7.58594 9.80469 7.35156 9.25781C7.11719 8.71094 7 8.125 7 7.5C7 6.88281 7.11719 6.30078 7.35156 5.75391C7.58594 5.20703 7.90625 4.73047 8.3125 4.32422C8.71875 3.91797 9.19531 3.59375 9.74219 3.35156C10.2891 3.10938 10.875 2.99219 11.5 3C12.1172 3 12.6992 3.11719 13.2461 3.35156C13.793 3.58594 14.2695 3.90625 14.6758 4.3125C15.082 4.71875 15.4062 5.19922 15.6484 5.75391C15.8906 6.30859 16.0078 6.89062 16 7.5C16 8.125 15.8828 8.70703 15.6484 9.24609C15.4141 9.78516 15.0938 10.2617 14.6875 10.6758C14.2812 11.0898 13.8008 11.4141 13.2461 11.6484C12.6914 11.8828 12.1094 12 11.5 12ZM11.5 4.5C11.0859 4.5 10.6992 4.57812 10.3398 4.73438C9.98047 4.89062 9.66016 5.10547 9.37891 5.37891C9.09766 5.65234 8.88281 5.96875 8.73438 6.32812C8.58594 6.6875 8.50781 7.07812 8.5 7.5C8.5 7.91406 8.57812 8.30078 8.73438 8.66016C8.89062 9.01953 9.10547 9.33984 9.37891 9.62109C9.65234 9.90234 9.96875 10.1172 10.3281 10.2656C10.6875 10.4141 11.0781 10.4922 11.5 10.5C11.9141 10.5 12.3008 10.4219 12.6602 10.2656C13.0195 10.1094 13.3398 9.89453 13.6211 9.62109C13.9023 9.34766 14.1172 9.03125 14.2656 8.67188C14.4141 8.3125 14.4922 7.92188 14.5 7.5C14.5 7.08594 14.4219 6.69922 14.2656 6.33984C14.1094 5.98047 13.8945 5.66016 13.6211 5.37891C13.3477 5.09766 13.0312 4.88281 12.6719 4.73438C12.3125 4.58594 11.9219 4.50781 11.5 4.5ZM19 7.5C19 8.3125 18.875 9.10156 18.625 9.86719C18.375 10.6328 18 11.3438 17.5 12V24L11.5 21L5.5 24V12C5.00781 11.3516 4.63672 10.6445 4.38672 9.87891C4.13672 9.11328 4.00781 8.32031 4 7.5C4 6.46094 4.19531 5.48828 4.58594 4.58203C4.97656 3.67578 5.51172 2.87891 6.19141 2.19141C6.87109 1.50391 7.66406 0.96875 8.57031 0.585938C9.47656 0.203125 10.4531 0.0078125 11.5 0C12.5391 0 13.5117 0.195313 14.418 0.585938C15.3242 0.976562 16.1211 1.51172 16.8086 2.19141C17.4961 2.87109 18.0312 3.66406 18.4141 4.57031C18.7969 5.47656 18.9922 6.45312 19 7.5ZM11.5 1.5C10.6719 1.5 9.89453 1.65625 9.16797 1.96875C8.44141 2.28125 7.80859 2.71094 7.26953 3.25781C6.73047 3.80469 6.30078 4.44141 5.98047 5.16797C5.66016 5.89453 5.5 6.67188 5.5 7.5C5.5 8.32812 5.65625 9.10547 5.96875 9.83203C6.28125 10.5586 6.71094 11.1914 7.25781 11.7305C7.80469 12.2695 8.44141 12.6992 9.16797 13.0195C9.89453 13.3398 10.6719 13.5 11.5 13.5C12.3281 13.5 13.1055 13.3438 13.832 13.0312C14.5586 12.7188 15.1914 12.2891 15.7305 11.7422C16.2695 11.1953 16.6992 10.5586 17.0195 9.83203C17.3398 9.10547 17.5 8.32812 17.5 7.5C17.5 6.67188 17.3438 5.89453 17.0312 5.16797C16.7188 4.44141 16.2891 3.80859 15.7422 3.26953C15.1953 2.73047 14.5586 2.30078 13.832 1.98047C13.1055 1.66016 12.3281 1.5 11.5 1.5ZM16 21.75V13.5C15.3516 13.9922 14.6445 14.3633 13.8789 14.6133C13.1133 14.8633 12.3203 14.9922 11.5 15C10.6875 15 9.89844 14.875 9.13281 14.625C8.36719 14.375 7.65625 14 7 13.5V21.75L11.5 19.5L16 21.75Z" fill="#949494"/>
</svg>
