<svg width="24" height="24" viewBox="0 0 24 24" fill="none" xmlns="http://www.w3.org/2000/svg">
<path d="M12 12C11.5833 12 11.1953 11.9219 10.8359 11.7656C10.4766 11.6094 10.1589 11.3958 9.88281 11.125C9.60677 10.8542 9.39062 10.5365 9.23438 10.1719C9.07812 9.80729 9 9.41667 9 9C9 8.58854 9.07812 8.20052 9.23438 7.83594C9.39062 7.47135 9.60417 7.15365 9.875 6.88281C10.1458 6.61198 10.4635 6.39583 10.8281 6.23438C11.1927 6.07292 11.5833 5.99479 12 6C12.4115 6 12.7995 6.07812 13.1641 6.23438C13.5286 6.39062 13.8464 6.60417 14.1172 6.875C14.388 7.14583 14.6042 7.46615 14.7656 7.83594C14.9271 8.20573 15.0052 8.59375 15 9C15 9.41667 14.9219 9.80469 14.7656 10.1641C14.6094 10.5234 14.3958 10.8411 14.125 11.1172C13.8542 11.3932 13.5339 11.6094 13.1641 11.7656C12.7943 11.9219 12.4062 12 12 12ZM12 7C11.724 7 11.4661 7.05208 11.2266 7.15625C10.987 7.26042 10.7734 7.40365 10.5859 7.58594C10.3984 7.76823 10.2552 7.97917 10.1562 8.21875C10.0573 8.45833 10.0052 8.71875 10 9C10 9.27604 10.0521 9.53385 10.1562 9.77344C10.2604 10.013 10.4036 10.2266 10.5859 10.4141C10.7682 10.6016 10.9792 10.7448 11.2188 10.8438C11.4583 10.9427 11.7188 10.9948 12 11C12.276 11 12.5339 10.9479 12.7734 10.8438C13.013 10.7396 13.2266 10.5964 13.4141 10.4141C13.6016 10.2318 13.7448 10.0208 13.8438 9.78125C13.9427 9.54167 13.9948 9.28125 14 9C14 8.72396 13.9479 8.46615 13.8438 8.22656C13.7396 7.98698 13.5964 7.77344 13.4141 7.58594C13.2318 7.39844 13.0208 7.25521 12.7812 7.15625C12.5417 7.05729 12.2812 7.00521 12 7ZM17 9C17 9.54167 16.9167 10.0677 16.75 10.5781C16.5833 11.0885 16.3333 11.5625 16 12V20L12 18L8 20V12C7.67188 11.5677 7.42448 11.0964 7.25781 10.5859C7.09115 10.0755 7.00521 9.54688 7 9C7 8.30729 7.13021 7.65885 7.39062 7.05469C7.65104 6.45052 8.00781 5.91927 8.46094 5.46094C8.91406 5.0026 9.44271 4.64583 10.0469 4.39062C10.651 4.13542 11.3021 4.00521 12 4C12.6927 4 13.3411 4.13021 13.9453 4.39062C14.5495 4.65104 15.0807 5.00781 15.5391 5.46094C15.9974 5.91406 16.3542 6.44271 16.6094 7.04688C16.8646 7.65104 16.9948 8.30208 17 9ZM12 5C11.4479 5 10.9297 5.10417 10.4453 5.3125C9.96094 5.52083 9.53906 5.80729 9.17969 6.17188C8.82031 6.53646 8.53385 6.96094 8.32031 7.44531C8.10677 7.92969 8 8.44792 8 9C8 9.55208 8.10417 10.0703 8.3125 10.5547C8.52083 11.0391 8.80729 11.4609 9.17188 11.8203C9.53646 12.1797 9.96094 12.4661 10.4453 12.6797C10.9297 12.8932 11.4479 13 12 13C12.5521 13 13.0703 12.8958 13.5547 12.6875C14.0391 12.4792 14.4609 12.1927 14.8203 11.8281C15.1797 11.4635 15.4661 11.0391 15.6797 10.5547C15.8932 10.0703 16 9.55208 16 9C16 8.44792 15.8958 7.92969 15.6875 7.44531C15.4792 6.96094 15.1927 6.53906 14.8281 6.17969C14.4635 5.82031 14.0391 5.53385 13.5547 5.32031C13.0703 5.10677 12.5521 5 12 5ZM15 18.5V13C14.5677 13.3281 14.0964 13.5755 13.5859 13.7422C13.0755 13.9089 12.5469 13.9948 12 14C11.4583 14 10.9323 13.9167 10.4219 13.75C9.91146 13.5833 9.4375 13.3333 9 13V18.5L12 17L15 18.5Z" fill="#949494"/>
</svg>
