<svg width="24" height="24" viewBox="0 0 24 24" fill="none" xmlns="http://www.w3.org/2000/svg">
<path d="M16 10V11C16.3958 11 16.7734 11.0443 17.1328 11.1328C17.4922 11.2214 17.8125 11.3672 18.0938 11.5703C18.375 11.7734 18.5938 12.0312 18.75 12.3438C18.9062 12.6562 18.9896 13.0417 19 13.5C19 13.8438 18.9349 14.1667 18.8047 14.4688C18.6745 14.7708 18.4948 15.0339 18.2656 15.2578C18.0365 15.4818 17.7708 15.6615 17.4688 15.7969C17.1667 15.9323 16.8438 16 16.5 16H12.5C12.1562 16 11.8333 15.9349 11.5312 15.8047C11.2292 15.6745 10.9661 15.4948 10.7422 15.2656C10.5182 15.0365 10.3385 14.7708 10.2031 14.4688C10.0677 14.1667 10 13.8438 10 13.5C10 13.0469 10.0807 12.6641 10.2422 12.3516C10.4036 12.0391 10.625 11.7812 10.9062 11.5781C11.1875 11.375 11.5052 11.2292 11.8594 11.1406C12.2135 11.0521 12.5938 11.0052 13 11V10H12.5C12.0156 10 11.5625 10.0911 11.1406 10.2734C10.7188 10.4557 10.349 10.7057 10.0312 11.0234C9.71354 11.3411 9.46354 11.7109 9.28125 12.1328C9.09896 12.5547 9.00521 13.0104 9 13.5C9 13.9844 9.09115 14.4375 9.27344 14.8594C9.45573 15.2812 9.70573 15.651 10.0234 15.9688C10.3411 16.2865 10.7109 16.5365 11.1328 16.7188C11.5547 16.901 12.0104 16.9948 12.5 17H16.5C16.9844 17 17.4375 16.9089 17.8594 16.7266C18.2812 16.5443 18.651 16.2943 18.9688 15.9766C19.2865 15.6589 19.5365 15.2891 19.7188 14.8672C19.901 14.4453 19.9948 13.9896 20 13.5C20 13.0156 19.9089 12.5625 19.7266 12.1406C19.5443 11.7188 19.2943 11.349 18.9766 11.0312C18.6589 10.7135 18.2891 10.4635 17.8672 10.2812C17.4453 10.099 16.9896 10.0052 16.5 10H16ZM11 14V13C11.3958 13 11.7734 12.9557 12.1328 12.8672C12.4922 12.7786 12.8125 12.6328 13.0938 12.4297C13.375 12.2266 13.5938 11.9688 13.75 11.6562C13.9062 11.3438 13.9896 10.9583 14 10.5C14 10.1562 13.9349 9.83333 13.8047 9.53125C13.6745 9.22917 13.4948 8.96615 13.2656 8.74219C13.0365 8.51823 12.7708 8.33854 12.4688 8.20312C12.1667 8.06771 11.8438 8 11.5 8H7.5C7.15625 8 6.83333 8.0651 6.53125 8.19531C6.22917 8.32552 5.96615 8.50521 5.74219 8.73438C5.51823 8.96354 5.33854 9.22917 5.20312 9.53125C5.06771 9.83333 5 10.1562 5 10.5C5 10.9531 5.08073 11.3359 5.24219 11.6484C5.40365 11.9609 5.625 12.2188 5.90625 12.4219C6.1875 12.625 6.50521 12.7708 6.85938 12.8594C7.21354 12.9479 7.59375 12.9948 8 13V14H7.5C7.01562 14 6.5625 13.9089 6.14062 13.7266C5.71875 13.5443 5.34896 13.2943 5.03125 12.9766C4.71354 12.6589 4.46354 12.2891 4.28125 11.8672C4.09896 11.4453 4.00521 10.9896 4 10.5C4 10.0156 4.09115 9.5625 4.27344 9.14062C4.45573 8.71875 4.70573 8.34896 5.02344 8.03125C5.34115 7.71354 5.71094 7.46354 6.13281 7.28125C6.55469 7.09896 7.01042 7.00521 7.5 7H11.5C11.9844 7 12.4375 7.09115 12.8594 7.27344C13.2812 7.45573 13.651 7.70573 13.9688 8.02344C14.2865 8.34115 14.5365 8.71094 14.7188 9.13281C14.901 9.55469 14.9948 10.0104 15 10.5C15 10.9844 14.9089 11.4375 14.7266 11.8594C14.5443 12.2812 14.2943 12.651 13.9766 12.9688C13.6589 13.2865 13.2891 13.5365 12.8672 13.7188C12.4453 13.901 11.9896 13.9948 11.5 14H11Z" fill="#949494"/>
</svg>
