<svg width="24" height="24" viewBox="0 0 24 24" fill="none" xmlns="http://www.w3.org/2000/svg">
<path d="M18 9.5V11C18.5938 11 19.1602 11.0664 19.6992 11.1992C20.2383 11.332 20.7188 11.5508 21.1406 11.8555C21.5625 12.1602 21.8906 12.5469 22.125 13.0156C22.3594 13.4844 22.4844 14.0625 22.5 14.75C22.5 15.2656 22.4023 15.75 22.207 16.2031C22.0117 16.6563 21.7422 17.0508 21.3984 17.3867C21.0547 17.7227 20.6563 17.9922 20.2031 18.1953C19.75 18.3984 19.2656 18.5 18.75 18.5H12.75C12.2344 18.5 11.75 18.4023 11.2969 18.207C10.8437 18.0117 10.4492 17.7422 10.1133 17.3984C9.77734 17.0547 9.50781 16.6563 9.30469 16.2031C9.10156 15.75 9 15.2656 9 14.75C9 14.0703 9.12109 13.4961 9.36328 13.0273C9.60547 12.5586 9.9375 12.1719 10.3594 11.8672C10.7812 11.5625 11.2578 11.3437 11.7891 11.2109C12.3203 11.0781 12.8906 11.0078 13.5 11V9.5H12.75C12.0234 9.5 11.3438 9.63672 10.7109 9.91016C10.0781 10.1836 9.52344 10.5586 9.04688 11.0352C8.57031 11.5117 8.19531 12.0664 7.92188 12.6992C7.64844 13.332 7.50781 14.0156 7.5 14.75C7.5 15.4766 7.63672 16.1562 7.91016 16.7891C8.18359 17.4219 8.55859 17.9766 9.03516 18.4531C9.51172 18.9297 10.0664 19.3047 10.6992 19.5781C11.332 19.8516 12.0156 19.9922 12.75 20H18.75C19.4766 20 20.1562 19.8633 20.7891 19.5898C21.4219 19.3164 21.9766 18.9414 22.4531 18.4648C22.9297 17.9883 23.3047 17.4336 23.5781 16.8008C23.8516 16.168 23.9922 15.4844 24 14.75C24 14.0234 23.8633 13.3438 23.5898 12.7109C23.3164 12.0781 22.9414 11.5234 22.4648 11.0469C21.9883 10.5703 21.4336 10.1953 20.8008 9.92188C20.168 9.64844 19.4844 9.50781 18.75 9.5H18ZM10.5 15.5V14C11.0938 14 11.6602 13.9336 12.1992 13.8008C12.7383 13.668 13.2188 13.4492 13.6406 13.1445C14.0625 12.8398 14.3906 12.4531 14.625 11.9844C14.8594 11.5156 14.9844 10.9375 15 10.25C15 9.73438 14.9023 9.25 14.707 8.79688C14.5117 8.34375 14.2422 7.94922 13.8984 7.61328C13.5547 7.27734 13.1563 7.00781 12.7031 6.80469C12.25 6.60156 11.7656 6.5 11.25 6.5H5.25C4.73438 6.5 4.25 6.59766 3.79688 6.79297C3.34375 6.98828 2.94922 7.25781 2.61328 7.60156C2.27734 7.94531 2.00781 8.34375 1.80469 8.79688C1.60156 9.25 1.5 9.73438 1.5 10.25C1.5 10.9297 1.62109 11.5039 1.86328 11.9727C2.10547 12.4414 2.4375 12.8281 2.85938 13.1328C3.28125 13.4375 3.75781 13.6563 4.28906 13.7891C4.82031 13.9219 5.39062 13.9922 6 14V15.5H5.25C4.52344 15.5 3.84375 15.3633 3.21094 15.0898C2.57812 14.8164 2.02344 14.4414 1.54688 13.9648C1.07031 13.4883 0.695313 12.9336 0.421875 12.3008C0.148437 11.668 0.0078125 10.9844 0 10.25C0 9.52344 0.136719 8.84375 0.410156 8.21094C0.683594 7.57812 1.05859 7.02344 1.53516 6.54688C2.01172 6.07031 2.56641 5.69531 3.19922 5.42188C3.83203 5.14844 4.51562 5.00781 5.25 5H11.25C11.9766 5 12.6562 5.13672 13.2891 5.41016C13.9219 5.68359 14.4766 6.05859 14.9531 6.53516C15.4297 7.01172 15.8047 7.56641 16.0781 8.19922C16.3516 8.83203 16.4922 9.51562 16.5 10.25C16.5 10.9766 16.3633 11.6562 16.0898 12.2891C15.8164 12.9219 15.4414 13.4766 14.9648 13.9531C14.4883 14.4297 13.9336 14.8047 13.3008 15.0781C12.668 15.3516 11.9844 15.4922 11.25 15.5H10.5Z" fill="#949494"/>
</svg>
