<svg width="24" height="24" viewBox="0 0 24 24" fill="none" xmlns="http://www.w3.org/2000/svg">
<mask id="mask0_322_20072" style="mask-type:alpha" maskUnits="userSpaceOnUse" x="6" y="4" width="12" height="16">
<path d="M17.3325 4C17.7011 4 18 4.29885 18 4.6675V19.3325C18 19.7011 17.7011 20 17.3325 20H6.66667C6.29848 20 6 19.7015 6 19.3333V12.6667C6 12.2985 6.29848 12 6.66667 12H9.25V8.66667C9.25 8.29848 9.54848 8 9.91667 8H12.5V4.6675C12.5 4.29885 12.7989 4 13.1675 4H17.3325Z" fill="white"/>
</mask>
<g mask="url(#mask0_322_20072)">
<path d="M16 4.6675V19.3325C16 19.7011 15.7011 20 15.3325 20H11.1675C10.7988 20 10.5 19.7011 10.5 19.3325V4.6675C10.5 4.29885 10.7988 4 11.1675 4H15.3325C15.7012 4 16 4.29885 16 4.6675Z" fill="#9B9B9B"/>
<g filter="url(#filter0_dd_322_20072)">
<path d="M12.75 8.66667V20H7.25V8.66667C7.25 8.29848 7.54848 8 7.91667 8H12.0833C12.4515 8 12.75 8.29848 12.75 8.66667Z" fill="#C1C1C1"/>
</g>
<path d="M4 12.6667V19.3333C4 19.7015 4.29848 20 4.66667 20H9.5V12.6667C9.5 12.2985 9.20152 12 8.83333 12H4.66667C4.29848 12 4 12.2985 4 12.6667Z" fill="#DADADA"/>
</g>
<defs>
<filter id="filter0_dd_322_20072" x="1.91666" y="3.99999" width="16.1667" height="22.6667" filterUnits="userSpaceOnUse" color-interpolation-filters="sRGB">
<feFlood flood-opacity="0" result="BackgroundImageFix"/>
<feColorMatrix in="SourceAlpha" type="matrix" values="0 0 0 0 0 0 0 0 0 0 0 0 0 0 0 0 0 0 127 0" result="hardAlpha"/>
<feOffset dy="0.253333"/>
<feGaussianBlur stdDeviation="0.253333"/>
<feColorMatrix type="matrix" values="0 0 0 0 0 0 0 0 0 0 0 0 0 0 0 0 0 0 0.2 0"/>
<feBlend mode="normal" in2="BackgroundImageFix" result="effect1_dropShadow_322_20072"/>
<feColorMatrix in="SourceAlpha" type="matrix" values="0 0 0 0 0 0 0 0 0 0 0 0 0 0 0 0 0 0 127 0" result="hardAlpha"/>
<feOffset dy="1.33333"/>
<feGaussianBlur stdDeviation="2.66667"/>
<feColorMatrix type="matrix" values="0 0 0 0 0 0 0 0 0 0 0 0 0 0 0 0 0 0 0.18 0"/>
<feBlend mode="normal" in2="effect1_dropShadow_322_20072" result="effect2_dropShadow_322_20072"/>
<feBlend mode="normal" in="SourceGraphic" in2="effect2_dropShadow_322_20072" result="shape"/>
</filter>
</defs>
</svg>
