<svg width="24" height="24" viewBox="0 0 24 24" fill="none" xmlns="http://www.w3.org/2000/svg">
<path d="M17.8286 10.0767L18.7039 9.20142C18.833 9.57734 18.9283 9.96167 18.9901 10.3544C19.0518 10.7472 19.0826 11.1427 19.0826 11.5411C19.0826 12.2368 18.9929 12.9045 18.8133 13.5441C18.6338 14.1838 18.3813 14.7813 18.0559 15.3368C17.7304 15.8922 17.3349 16.4028 16.8692 16.8685C16.4035 17.3342 15.8957 17.727 15.3459 18.0468C14.796 18.3666 14.1957 18.6219 13.5448 18.8126C12.894 19.0034 12.2263 19.0932 11.5418 19.082C10.8461 19.082 10.1784 18.9922 9.53875 18.8126C8.89912 18.6331 8.30158 18.3806 7.74611 18.0552C7.19065 17.7298 6.68007 17.3342 6.21438 16.8685C5.74869 16.4028 5.35593 15.895 5.03612 15.3452C4.71631 14.7953 4.46102 14.195 4.27025 13.5441C4.07949 12.8933 3.98971 12.2256 4.00094 11.5411C4.00094 10.851 4.09071 10.1861 4.27025 9.54648C4.4498 8.90685 4.70228 8.3065 5.0277 7.74543C5.35313 7.18435 5.74869 6.67377 6.21438 6.21369C6.68007 5.75361 7.18784 5.36086 7.7377 5.03543C8.28755 4.71001 8.8879 4.45472 9.53875 4.26956C10.1896 4.08441 10.8573 3.99464 11.5418 4.00025C12.4844 4.00025 13.3877 4.16857 14.2518 4.50522C15.1158 4.84186 15.8985 5.33 16.5999 5.96962L15.8424 6.72707C15.2477 6.19966 14.5828 5.79288 13.8478 5.50673C13.1128 5.22059 11.5418 5.07751 11.5418 5.07751C11.5418 5.07751 10.3748 5.15326 9.8249 5.30475C9.27504 5.45624 8.76166 5.67506 8.28475 5.96121C7.80783 6.24735 7.37019 6.584 6.97183 6.97114C6.57347 7.35828 6.23682 7.79312 5.96189 8.27564C5.68697 8.75817 5.47095 9.27436 5.31385 9.82421C5.15675 10.3741 5.0782 10.9464 5.0782 11.5411C5.0782 12.1358 5.15395 12.7081 5.30544 13.258C5.45693 13.8078 5.67575 14.3212 5.96189 14.7981C6.24804 15.2751 6.58469 15.7127 6.97183 16.1111C7.35897 16.5094 7.7938 16.8461 8.27633 17.121C8.75885 17.3959 9.27504 17.6119 9.8249 17.769C10.3748 17.9261 10.947 18.0047 11.5418 18.0047C12.1365 18.0047 12.7088 17.9289 13.2587 17.7775C13.8085 17.626 14.3219 17.4071 14.7988 17.121C15.2757 16.8348 15.7134 16.4982 16.1117 16.1111C16.5101 15.7239 16.8468 15.2891 17.1217 14.8066C17.3966 14.324 17.6126 13.8078 17.7697 13.258C17.9268 12.7081 18.0054 12.1358 18.0054 11.5411C18.0054 11.2886 17.9914 11.0417 17.9633 10.8005C17.9352 10.5592 17.8904 10.318 17.8286 10.0767ZM8.15009 10.6237L11.0032 13.4768L19.2425 5.23742L20 5.99487L11.0032 14.9917L7.39264 11.3812L8.15009 10.6237Z" fill="#949494"/>
</svg>
