<svg width="24" height="24" viewBox="0 0 24 24" fill="none" xmlns="http://www.w3.org/2000/svg">
<rect width="24" height="24" fill="white"/>
<path d="M20.743 10.2664L22.0559 8.93167C22.2494 9.50492 22.3925 10.091 22.4851 10.6899C22.5777 11.2888 22.624 11.892 22.624 12.4995C22.624 13.5604 22.4893 14.5786 22.22 15.5539C21.9507 16.5293 21.5719 17.4405 21.0838 18.2875C20.5957 19.1346 20.0023 19.9131 19.3038 20.6233C18.6053 21.3334 17.8436 21.9323 17.0188 22.42C16.194 22.9077 15.2935 23.297 14.3172 23.5879C13.341 23.8788 12.3395 24.0157 11.3127 23.9986C10.2691 23.9986 9.26756 23.8617 8.30812 23.5879C7.34868 23.3141 6.45237 22.9291 5.61917 22.4328C4.78597 21.9366 4.02011 21.3334 3.32157 20.6233C2.62303 19.9131 2.0339 19.1388 1.55418 18.3004C1.07446 17.4619 0.691525 16.5464 0.405377 15.5539C0.119229 14.5614 -0.0154296 13.5433 0.00140269 12.4995C0.00140269 11.4471 0.136061 10.4332 0.405377 9.45786C0.674693 8.48249 1.05342 7.56701 1.54155 6.71143C2.02969 5.85584 2.62303 5.07725 3.32157 4.37567C4.02011 3.67409 4.78176 3.07518 5.60655 2.57894C6.43133 2.0827 7.33185 1.6934 8.30812 1.41106C9.28439 1.12872 10.2859 0.991822 11.3127 1.00038C12.7266 1.00038 14.0816 1.25705 15.3777 1.77041C16.6738 2.28376 17.8478 3.02812 18.8998 4.00349L17.7636 5.15853C16.8715 4.35428 15.8742 3.73398 14.7717 3.29763C13.6692 2.86128 11.3127 2.64311 11.3127 2.64311C11.3127 2.64311 9.56213 2.75861 8.73735 2.98962C7.91257 3.22063 7.14249 3.55431 6.42712 3.99066C5.71175 4.42701 5.05529 4.94036 4.45774 5.53071C3.8602 6.12107 3.35523 6.78415 2.94284 7.51996C2.53045 8.25576 2.20643 9.0429 1.97078 9.88138C1.73513 10.7199 1.6173 11.5926 1.6173 12.4995C1.6173 13.4064 1.73092 14.2791 1.95815 15.1176C2.18539 15.956 2.51362 16.7389 2.94284 17.4662C3.37206 18.1934 3.87703 18.8608 4.45774 19.4682C5.03846 20.0757 5.69071 20.5891 6.41449 21.0083C7.13828 21.4275 7.91257 21.7569 8.73735 21.9965C9.56213 22.2361 10.4206 22.3558 11.3127 22.3558C12.2048 22.3558 13.0632 22.2403 13.888 22.0093C14.7128 21.7783 15.4829 21.4446 16.1982 21.0083C16.9136 20.5719 17.5701 20.0586 18.1676 19.4682C18.7652 18.8779 19.2701 18.2148 19.6825 17.479C20.0949 16.7432 20.4189 15.956 20.6546 15.1176C20.8902 14.2791 21.0081 13.4064 21.0081 12.4995C21.0081 12.1145 20.987 11.738 20.9449 11.3701C20.9029 11.0022 20.8355 10.6343 20.743 10.2664ZM6.22513 11.1006L10.5047 15.4513L22.8638 2.88695L24 4.04199L10.5047 17.7613L5.08895 12.2556L6.22513 11.1006Z" fill="#949494"/>
</svg>
