<svg width="24" height="24" viewBox="0 0 24 24" fill="none" xmlns="http://www.w3.org/2000/svg">
<circle cx="12.7339" cy="16.4037" r="3.15596" fill="#C0C0C0"/>
<circle cx="15.8899" cy="12.5137" r="4.11009" fill="#919191"/>
<circle cx="12.1468" cy="8.47706" r="4.47706" fill="#767575"/>
<rect x="4" y="7.66974" width="8.07339" height="8.22018" rx="1" fill="url(#paint0_linear_322_20071)"/>
<path d="M6.36841 13.9101V12.8551C6.55964 13.0155 6.76735 13.1364 6.99155 13.2177C7.21575 13.2969 7.44214 13.3364 7.67074 13.3364C7.80482 13.3364 7.92131 13.3243 8.02022 13.3002C8.12133 13.276 8.20485 13.243 8.27079 13.2013C8.33893 13.1573 8.38949 13.1067 8.42246 13.0496C8.45543 12.9902 8.47191 12.9265 8.47191 12.8584C8.47191 12.766 8.44554 12.6836 8.39278 12.6111C8.34003 12.5386 8.2675 12.4715 8.17518 12.41C8.08506 12.3484 7.97736 12.2891 7.85207 12.2319C7.72679 12.1748 7.59161 12.1165 7.44654 12.0572C7.07727 11.9033 6.80142 11.7154 6.61899 11.4934C6.43875 11.2714 6.34863 11.0032 6.34863 10.6889C6.34863 10.4427 6.39809 10.2317 6.497 10.0559C6.59591 9.87786 6.72999 9.73169 6.89923 9.61739C7.07068 9.5031 7.2685 9.41957 7.4927 9.36682C7.7169 9.31187 7.95428 9.28439 8.20485 9.28439C8.45103 9.28439 8.66863 9.29978 8.85766 9.33055C9.04889 9.35913 9.22473 9.40418 9.38519 9.46573V10.4515C9.30606 10.3966 9.21924 10.3482 9.12472 10.3065C9.03241 10.2647 8.93679 10.2306 8.83788 10.2043C8.73897 10.1757 8.64006 10.1548 8.54115 10.1416C8.44444 10.1284 8.35212 10.1218 8.2642 10.1218C8.14331 10.1218 8.03341 10.1339 7.9345 10.1581C7.83559 10.1801 7.75206 10.212 7.68393 10.2537C7.61579 10.2955 7.56303 10.346 7.52567 10.4054C7.4883 10.4625 7.46962 10.5274 7.46962 10.5999C7.46962 10.679 7.4905 10.7505 7.53226 10.8142C7.57402 10.8758 7.63337 10.9351 7.7103 10.9922C7.78723 11.0472 7.88065 11.1021 7.99055 11.1571C8.10045 11.2099 8.22464 11.2648 8.36311 11.322C8.55214 11.4011 8.72139 11.4857 8.87085 11.5758C9.02251 11.6637 9.1522 11.7638 9.2599 11.8758C9.3676 11.9879 9.45003 12.1165 9.50718 12.2616C9.56432 12.4045 9.5929 12.5715 9.5929 12.7627C9.5929 13.0265 9.54234 13.2485 9.44124 13.4287C9.34233 13.6068 9.20715 13.7519 9.0357 13.864C8.86426 13.9739 8.66424 14.053 8.43565 14.1013C8.20925 14.1497 7.96967 14.1739 7.7169 14.1739C7.45753 14.1739 7.21025 14.1519 6.97507 14.1079C6.74208 14.064 6.53986 13.998 6.36841 13.9101Z" fill="white"/>
<defs>
<linearGradient id="paint0_linear_322_20071" x1="8.0367" y1="7.66974" x2="8.0367" y2="15.8899" gradientUnits="userSpaceOnUse">
<stop stop-color="#656565"/>
<stop offset="1" stop-color="#545454"/>
</linearGradient>
</defs>
</svg>
