<svg width="24" height="24" viewBox="0 0 24 24" fill="none" xmlns="http://www.w3.org/2000/svg">
<circle cx="13.1009" cy="18.6055" r="4.73395" fill="#C0C0C0"/>
<circle cx="17.8349" cy="12.7706" r="6.16514" fill="#919191"/>
<circle cx="12.2202" cy="6.7156" r="6.7156" fill="#767575"/>
<rect y="5.50461" width="12.1101" height="12.3303" rx="1.5" fill="url(#paint0_linear_447_23358)"/>
<path d="M3.55262 14.8652V13.2826C3.83946 13.5233 4.15103 13.7046 4.48733 13.8266C4.82362 13.9453 5.16322 14.0047 5.50611 14.0047C5.70722 14.0047 5.88197 13.9865 6.03033 13.9503C6.18199 13.914 6.30728 13.8645 6.40619 13.8019C6.5084 13.736 6.58423 13.6601 6.63369 13.5744C6.68314 13.4854 6.70787 13.3898 6.70787 13.2876C6.70787 13.1491 6.6683 13.0254 6.58918 12.9166C6.51005 12.8078 6.40125 12.7073 6.26277 12.615C6.12759 12.5226 5.96604 12.4336 5.77811 12.3479C5.59018 12.2622 5.38741 12.1748 5.16981 12.0858C4.61591 11.855 4.20214 11.5731 3.92848 11.2401C3.65813 10.9071 3.52295 10.5049 3.52295 10.0334C3.52295 9.66413 3.59713 9.34762 3.7455 9.08386C3.89386 8.8168 4.09498 8.59755 4.34885 8.4261C4.60602 8.25466 4.90275 8.12937 5.23905 8.05024C5.57534 7.96782 5.93142 7.92661 6.30728 7.92661C6.67655 7.92661 7.00295 7.94968 7.2865 7.99584C7.57334 8.0387 7.8371 8.10629 8.07778 8.19861V9.67732C7.95909 9.5949 7.82886 9.52236 7.68708 9.45972C7.54861 9.39708 7.40519 9.34597 7.25682 9.30641C7.10846 9.26355 6.96009 9.23222 6.81173 9.21244C6.66666 9.19266 6.52818 9.18277 6.3963 9.18277C6.21496 9.18277 6.05011 9.2009 5.90175 9.23717C5.75338 9.27014 5.6281 9.31795 5.52589 9.38059C5.42368 9.44323 5.34455 9.51907 5.2885 9.60808C5.23245 9.69381 5.20443 9.79107 5.20443 9.89987C5.20443 10.0186 5.23575 10.1257 5.29839 10.2213C5.36104 10.3136 5.45006 10.4027 5.56545 10.4884C5.68085 10.5708 5.82097 10.6532 5.98582 10.7357C6.15067 10.8148 6.33695 10.8972 6.54467 10.9829C6.82821 11.1016 7.08208 11.2286 7.30628 11.3637C7.53377 11.4956 7.7283 11.6456 7.88985 11.8138C8.0514 11.9819 8.17504 12.1748 8.26076 12.3924C8.34649 12.6067 8.38935 12.8573 8.38935 13.1441C8.38935 13.5398 8.31352 13.8728 8.16185 14.1431C8.01349 14.4102 7.81072 14.6278 7.55355 14.7959C7.29639 14.9608 6.99636 15.0795 6.65347 15.152C6.31388 15.2246 5.9545 15.2608 5.57534 15.2608C5.1863 15.2608 4.81538 15.2279 4.4626 15.1619C4.11312 15.096 3.80979 14.9971 3.55262 14.8652Z" fill="white"/>
<defs>
<linearGradient id="paint0_linear_447_23358" x1="6.05505" y1="5.50461" x2="6.05505" y2="17.8349" gradientUnits="userSpaceOnUse">
<stop stop-color="#656565"/>
<stop offset="1" stop-color="#545454"/>
</linearGradient>
</defs>
</svg>
